
        <svg xmlns="http://www.w3.org/2000/svg" xmlns:xlink="http://www.w3.org/1999/xlink" version="1.1" width="3147.783251231527" height="1270.9359605911332" viewBox="0 0 3147.783251231527 1270.9359605911332">
			
			<g transform="scale(7.389162561576355) translate(10, 10)">
				<defs id="SvgjsDefs1001"/><g id="SvgjsG1007" featureKey="AgVF85-0" transform="matrix(1.1111974901070851,0,0,1.1111974901070851,-6.0715833360391525,19.878413751848896)" fill="#fff"><path xmlns="http://www.w3.org/2000/svg" fill-rule="evenodd" clip-rule="evenodd" d="M50.459,95.503c-2.519,0-4.975-0.259-7.383-0.655l2.064-5.143  c1.744,0.236,3.511,0.399,5.319,0.399c2.501,0,4.94-0.261,7.313-0.703l-5.998-6.497h-8.514h-1.8h-1.8v-5.398h-5.899  c-0.623,1.07-1.771,1.8-3.099,1.8c-1.988,0-3.601-1.612-3.601-3.601s1.612-3.6,3.601-3.6c1.329,0,2.477,0.728,3.099,1.8h5.899v-1.8  v-3.601h3.6H61.26v0.77l4.416,4.784c0.315-0.09,0.641-0.153,0.983-0.153c1.988,0,3.6,1.612,3.6,3.601c0,1.987-1.611,3.598-3.6,3.598  s-3.599-1.61-3.599-3.598c0-0.296,0.044-0.579,0.11-0.854l-4.197-4.547H43.261v7.2H54.06v0.768l7.725,8.366  c6.576-1.96,12.414-5.601,17.071-10.395l-5.483-5.939H72.06V55.081l-5.435-5.883c-1.503,1.309-3.101,2.702-4.651,4.053  c-0.299,0.263-0.893,0.779-0.893,0.779l-1.621,0.024v0.051h-7.699c-0.623,1.072-1.771,1.801-3.1,1.801c-1.988,0-3.6-1.612-3.6-3.601  s1.612-3.599,3.6-3.599c1.329,0,2.477,0.728,3.1,1.8h7.699v0.393l10.799-9.623V27.107h-7.198v7.7  c1.07,0.623,1.798,1.771,1.798,3.099c0,1.988-1.61,3.601-3.599,3.601c-1.987,0-3.6-1.612-3.6-3.601c0-1.329,0.728-2.477,1.8-3.099  v-7.7v-1.8v-1.8h10.799v-7.183c-1.426-0.825-2.89-1.593-4.421-2.238c-0.573,0.264-1.206,0.422-1.879,0.422  c-2.484,0-4.499-2.015-4.499-4.5c0-2.484,2.015-4.499,4.499-4.499c2.243,0,4.087,1.644,4.428,3.788  c15.918,6.93,27.07,22.741,27.07,41.209C95.457,75.357,75.312,95.503,50.459,95.503z M81.058,52.306  c-1.988,0-3.599-1.61-3.599-3.599c0-1.329,0.729-2.477,1.799-3.101V30.708h1.8h1.801h1.87c-2.753-4.731-6.471-8.829-10.869-12.054  v26.453h-2.542c-0.584,0.508-1.25,1.09-1.978,1.723l6.525,7.069l-0.271,0.207h0.064v5.4h2.3c0.622-1.072,1.77-1.8,3.099-1.8  c1.988,0,3.601,1.612,3.601,3.601c0,1.987-1.612,3.6-3.601,3.6c-1.329,0-2.477-0.729-3.099-1.8h-2.3v6.168l5.598,6.063  c5.489-6.791,8.802-15.415,8.802-24.831c0-5.783-1.266-11.257-3.498-16.199h-3.702v11.298c1.072,0.625,1.8,1.772,1.8,3.101  C84.658,50.695,83.046,52.306,81.058,52.306z M50.459,10.908c-1.214,0-2.412,0.076-3.598,0.183v11.386l4.416,4.784  c0.314-0.09,0.64-0.153,0.982-0.153c1.988,0,3.601,1.612,3.601,3.601c0,1.988-1.612,3.6-3.601,3.6s-3.599-1.612-3.599-3.6  c0-0.295,0.044-0.579,0.111-0.853l-2.535-2.748h-1.918l-6.35,5.536l4.86,5.263h0.431v0.468l0.018,0.02l-0.018,0.016v22.897H61.76  c0.622-1.073,1.77-1.801,3.099-1.801c1.988,0,3.601,1.612,3.601,3.601s-1.612,3.599-3.601,3.599c-1.329,0-2.477-0.729-3.099-1.799  H43.261h-1.8h-1.8V39.782L23.152,21.899c-1,0.953-1.942,1.963-2.839,3.015L35.63,41.507h0.431v0.467l0.018,0.02l-0.018,0.016v21.097  v3.599h-3.599h-9h-1.798h-1.8v-8.999h-8.327c2.744,14.895,13.823,26.857,28.229,30.896l-2.025,5.049  C19.088,88.158,5.464,70.936,5.464,50.507c0-24.852,20.146-44.997,44.996-44.997c2.447,0,4.831,0.248,7.172,0.624l-2.062,5.142  C53.893,11.06,52.196,10.908,50.459,10.908z M18.068,27.79c-4.534,6.425-7.206,14.251-7.206,22.717c0,1.214,0.063,2.412,0.171,3.599  h12.428v1.801v1.8v5.4h9V43.382l-5.627-6.095l-5.231,7.245c0.031,0.188,0.06,0.378,0.06,0.575c0,1.988-1.612,3.6-3.6,3.6  s-3.6-1.612-3.6-3.6s1.612-3.6,3.6-3.6c0.401,0,0.779,0.081,1.139,0.202l5.142-7.12L18.068,27.79z M43.261,11.594  c-6.497,1.195-12.418,3.998-17.389,7.942l9.656,10.461l7.733-6.742V11.594z"/></g><g id="SvgjsG1008" featureKey="textGroupContainer" transform="matrix(1,0,0,1,405,0)" fill="#fff"><rect xmlns="http://www.w3.org/2000/svg" y="0" height="1" width="1" opacity="0"/><rect xmlns="http://www.w3.org/2000/svg" y="0" x="-285" width="3" height="152"/></g><g id="SvgjsG1009" featureKey="vRT5cH-0" transform="matrix(3.309505526464177,0,0,3.309505526464177,132.506289189154,23.041030349220097)" fill="#fff"><path d="M9.16 20.3 c-0.25334 0 -0.46664 -0.08666 -0.63998 -0.26 s-0.26 -0.38 -0.26 -0.62 l0 -5.24 c0 -0.33334 -0.06334 -0.64334 -0.19 -0.93 s-0.3 -0.54 -0.52 -0.76 s-0.47334 -0.39334 -0.76 -0.52 s-0.59666 -0.19 -0.93 -0.19 c-0.32 0 -0.62666 0.06334 -0.92 0.19 s-0.54668 0.3 -0.76002 0.52 s-0.38334 0.47334 -0.51 0.76 s-0.19 0.59666 -0.19 0.93 c0 0.05334 -0.01334 0.10668 -0.04 0.16002 l0 5.08 c0 0.24 -0.08666 0.44666 -0.26 0.62 s-0.38 0.26 -0.62 0.26 c-0.25334 0 -0.46668 -0.08666 -0.64002 -0.26 s-0.26 -0.38 -0.26 -0.62 l0 -14.02 c0 -0.24 0.08666 -0.44666 0.26 -0.62 s0.38668 -0.26 0.64002 -0.26 c0.24 0 0.44666 0.08666 0.62 0.26 s0.26 0.38 0.26 0.62 l0 5.38 c0.34666 -0.25334 0.73 -0.44668 1.15 -0.58002 s0.84334 -0.2 1.27 -0.2 c0.57334 0 1.1133 0.11 1.62 0.33 s0.95 0.52 1.33 0.9 s0.68 0.82334 0.9 1.33 s0.33 1.0467 0.33 1.62 l0 5.24 c0 0.24 -0.08666 0.44666 -0.26 0.62 s-0.38 0.26 -0.62 0.26 z M21.46 20.3 c-0.25334 0 -0.46668 -0.0867 -0.64002 -0.26004 s-0.26 -0.38 -0.26 -0.62 l0 -0.38 c-0.46666 0.4 -0.98666 0.71 -1.56 0.93 s-1.1733 0.33 -1.8 0.33 c-0.70666 0 -1.3733 -0.13666 -2 -0.41 s-1.1733 -0.64334 -1.64 -1.11 s-0.83666 -1.01 -1.11 -1.63 s-0.41 -1.2833 -0.41 -1.99 s0.13666 -1.3733 0.41 -2 s0.64334 -1.1733 1.11 -1.64 s1.0133 -0.83666 1.64 -1.11 s1.2933 -0.41 2 -0.41 c0.62666 0 1.2267 0.11 1.8 0.33 s1.0933 0.53 1.56 0.93 l0 -0.38 c0 -0.24 0.08666 -0.44666 0.26 -0.62 s0.38668 -0.26 0.64002 -0.26 c0.24 0 0.44666 0.08666 0.62 0.26 s0.26 0.38 0.26 0.62 l0 8.54 c0 0.24 -0.08666 0.44666 -0.26 0.62 s-0.38 0.26 -0.62 0.26 z M17.2 11.78 c-0.46666 0 -0.90332 0.09 -1.31 0.27 s-0.76332 0.42334 -1.07 0.73 s-0.55 0.66332 -0.73 1.07 s-0.27 0.84332 -0.27 1.31 s0.09 0.90332 0.27 1.31 s0.42334 0.76332 0.73 1.07 s0.66332 0.54666 1.07 0.72 s0.84332 0.26 1.31 0.26 s0.90332 -0.08666 1.31 -0.26 s0.76332 -0.41334 1.07 -0.72 s0.54666 -0.66332 0.72 -1.07 s0.26 -0.84332 0.26 -1.31 s-0.08666 -0.90332 -0.26 -1.31 s-0.41334 -0.76332 -0.72 -1.07 s-0.66332 -0.55 -1.07 -0.73 s-0.84332 -0.27 -1.31 -0.27 z M32.94 13.02 c-0.13334 0 -0.24668 -0.0233 -0.34002 -0.069962 s-0.18 -0.10332 -0.26 -0.16998 c-0.38666 -0.33334 -0.76 -0.58334 -1.12 -0.75 s-0.78666 -0.25 -1.28 -0.25 c-0.46666 0 -0.90332 0.09 -1.31 0.27 s-0.76332 0.42334 -1.07 0.73 s-0.55 0.66332 -0.73 1.07 s-0.27 0.84332 -0.27 1.31 s0.09 0.90332 0.27 1.31 s0.42334 0.76332 0.73 1.07 s0.66332 0.54666 1.07 0.72 s0.84332 0.26 1.31 0.26 c0.49334 0 0.92 -0.08334 1.28 -0.25 s0.73334 -0.41666 1.12 -0.75 c0.08 -0.06666 0.16666 -0.12332 0.26 -0.16998 s0.20668 -0.07 0.34002 -0.07 c0.25334 0 0.46668 0.08666 0.64002 0.26 s0.26 0.38 0.26 0.62 c0 0.13334 -0.02666 0.25 -0.08 0.35 s-0.11334 0.19 -0.18 0.27 c-0.22666 0.24 -0.48332 0.45666 -0.76998 0.65 s-0.59 0.35334 -0.91 0.48 s-0.64666 0.22332 -0.98 0.28998 s-0.66 0.1 -0.98 0.1 c-0.70666 0 -1.3733 -0.13666 -2 -0.41 s-1.1733 -0.64334 -1.64 -1.11 s-0.83666 -1.01 -1.11 -1.63 s-0.41 -1.2833 -0.41 -1.99 s0.13666 -1.3733 0.41 -2 s0.64334 -1.1733 1.11 -1.64 s1.0133 -0.83666 1.64 -1.11 s1.2933 -0.41 2 -0.41 c0.32 0 0.64666 0.03334 0.98 0.1 s0.66 0.16332 0.98 0.28998 s0.62334 0.28666 0.91 0.48 s0.54332 0.41 0.76998 0.65 c0.06666 0.08 0.12666 0.17 0.18 0.27 s0.08 0.21666 0.08 0.35 c0 0.24 -0.08666 0.44666 -0.26 0.62 s-0.38668 0.26 -0.64002 0.26 z M42.959999999999994 11.48 l-3.8 3.64 l3.8 3.66 c0.18666 0.16 0.28 0.37334 0.28 0.64 c0 0.24 -0.08666 0.44666 -0.26 0.62 s-0.38 0.26 -0.62 0.26 c-0.25334 0 -0.46 -0.08 -0.62 -0.24 l-3.88 -3.72 l0 3.08 c0 0.24 -0.08666 0.44666 -0.26 0.62 s-0.38 0.26 -0.62 0.26 s-0.44666 -0.08666 -0.62 -0.26 s-0.26 -0.38 -0.26 -0.62 l0 -14.02 c0 -0.24 0.08666 -0.44666 0.26 -0.62 s0.38 -0.26 0.62 -0.26 s0.44666 0.08666 0.62 0.26 s0.26 0.38 0.26 0.62 l0 8.52 l3.88 -3.72 c0.16 -0.16 0.36666 -0.24 0.62 -0.24 c0.24 0 0.44666 0.08666 0.62 0.26 s0.26 0.38 0.26 0.62 s-0.09334 0.45334 -0.28 0.64 z M52.739999999999995 20.3 c-0.25334 0 -0.46664 -0.08666 -0.63998 -0.26 s-0.26 -0.38 -0.26 -0.62 l0 -5.24 c0 -0.33334 -0.06334 -0.64334 -0.19 -0.93 s-0.3 -0.54 -0.52 -0.76 s-0.47334 -0.39334 -0.76 -0.52 s-0.59666 -0.19 -0.93 -0.19 c-0.32 0 -0.62666 0.06334 -0.92 0.19 s-0.54668 0.3 -0.76002 0.52 s-0.38334 0.47334 -0.51 0.76 s-0.19 0.59666 -0.19 0.93 c0 0.05334 -0.01334 0.10668 -0.04 0.16002 l0 5.08 c0 0.24 -0.08666 0.44666 -0.26 0.62 s-0.38 0.26 -0.62 0.26 c-0.25334 0 -0.46668 -0.08666 -0.64002 -0.26 s-0.26 -0.38 -0.26 -0.62 l0 -14.02 c0 -0.24 0.08666 -0.44666 0.26 -0.62 s0.38668 -0.26 0.64002 -0.26 c0.24 0 0.44666 0.08666 0.62 0.26 s0.26 0.38 0.26 0.62 l0 5.38 c0.34666 -0.25334 0.73 -0.44668 1.15 -0.58002 s0.84334 -0.2 1.27 -0.2 c0.57334 0 1.1133 0.11 1.62 0.33 s0.95 0.52 1.33 0.9 s0.68 0.82334 0.9 1.33 s0.33 1.0467 0.33 1.62 l0 5.24 c0 0.24 -0.08666 0.44666 -0.26 0.62 s-0.38 0.26 -0.62 0.26 z M60.04 20.26 c-0.54666 0 -1.0633 -0.10334 -1.55 -0.31 s-0.91 -0.49 -1.27 -0.85 s-0.64334 -0.78334 -0.85 -1.27 s-0.31 -1.0033 -0.31 -1.55 l0 -5.3 c0 -0.25334 0.08666 -0.46668 0.26 -0.64002 s0.38668 -0.26 0.64002 -0.26 c0.24 0 0.44666 0.08666 0.62 0.26 s0.26 0.38668 0.26 0.64002 l0 5.3 c0 0.30666 0.05666 0.59332 0.17 0.85998 s0.27 0.5 0.47 0.7 s0.43334 0.35666 0.7 0.47 s0.55332 0.17 0.85998 0.17 c0.29334 0 0.57334 -0.05666 0.84 -0.17 s0.5 -0.27 0.7 -0.47 s0.36 -0.43334 0.48 -0.7 s0.18 -0.55332 0.18 -0.85998 l0 -5.3 c0 -0.25334 0.08666 -0.46668 0.26 -0.64002 s0.38 -0.26 0.62 -0.26 s0.44666 0.08666 0.62 0.26 s0.26 0.38668 0.26 0.64002 l0 5.3 c0 0.54666 -0.10334 1.0633 -0.31 1.55 s-0.49 0.91 -0.85 1.27 s-0.78 0.64334 -1.26 0.85 s-0.99334 0.31 -1.54 0.31 z M72.06 20.3 c-0.64 0 -1.2466 -0.10996 -1.82 -0.32996 s-1.0933 -0.53 -1.56 -0.93 l0 0.38 c0 0.24 -0.08666 0.44666 -0.26 0.62 s-0.38 0.26 -0.62 0.26 c-0.25334 0 -0.46668 -0.08666 -0.64002 -0.26 s-0.26 -0.38 -0.26 -0.62 l-0.08 -14.02 c-0.01334 -0.24 0.07 -0.44666 0.25 -0.62 s0.39 -0.26 0.63 -0.26 c0.25334 0 0.46334 0.08666 0.63 0.26 s0.25 0.38 0.25 0.62 l0.08 5.88 c0.46666 -0.41334 0.99 -0.73 1.57 -0.95 s1.19 -0.33 1.83 -0.33 c0.70666 0 1.3733 0.13666 2 0.41 s1.1733 0.64334 1.64 1.11 s0.83332 1.0133 1.1 1.64 s0.4 1.2933 0.4 2 s-0.13334 1.37 -0.4 1.99 s-0.63332 1.1633 -1.1 1.63 s-1.0133 0.83666 -1.64 1.11 s-1.2933 0.41 -2 0.41 z M72.06 11.78 c-0.46666 0 -0.90332 0.09 -1.31 0.27 s-0.76332 0.42334 -1.07 0.73 s-0.55 0.66332 -0.73 1.07 s-0.27 0.84332 -0.27 1.31 s0.09 0.90332 0.27 1.31 s0.42334 0.76332 0.73 1.07 s0.66332 0.54666 1.07 0.72 s0.84332 0.26 1.31 0.26 s0.90332 -0.08666 1.31 -0.26 s0.76332 -0.41334 1.07 -0.72 s0.54666 -0.66332 0.72 -1.07 s0.26 -0.84332 0.26 -1.31 s-0.08666 -0.90332 -0.26 -1.31 s-0.41334 -0.76332 -0.72 -1.07 s-0.66332 -0.55 -1.07 -0.73 s-0.84332 -0.27 -1.31 -0.27 z"/></g><g id="SvgjsG1010" featureKey="dDj50M-0" transform="matrix(0.25067054830663504,0,0,0.25067054830663504,137.62399417754006,108.66643335715244)" fill="#fff"><path d="M1.5 20 l0 -14.24 l4.96 0 c0.9 0 1.76 0.36 2.4 1 s1 1.5 1 2.4 c0 1.88 -1.54 3.38 -3.4 3.38 l-3.18 0 l0 7.46 l-1.78 0 z M6.46 10.8 c0.88 0 1.6 -0.74 1.6 -1.64 s-0.72 -1.66 -1.6 -1.66 l-3.18 0 l0 3.3 l3.18 0 z M25.14 5.32 c4.1 0 7.46 3.34 7.46 7.46 c0 4.1 -3.36 7.42 -7.46 7.42 s-7.44 -3.32 -7.44 -7.42 c0 -4.12 3.34 -7.46 7.44 -7.46 z M25.14 18.44 c3.12 0 5.64 -2.56 5.64 -5.66 c0 -3.12 -2.52 -5.7 -5.64 -5.7 s-5.64 2.58 -5.64 5.7 c0 3.1 2.52 5.66 5.64 5.66 z M53.84 20 l-4.2 -7.34 l-4.18 7.34 l-1.92 0 l-3.98 -14.24 l1.88 0 l3.3 11.9 l3.9 -6.84 l2.02 0 l3.88 6.84 l3.32 -11.9 l1.88 0 l-3.98 14.24 l-1.92 0 z M68.42 20 l0 -14.24 l9 0 l0 1.72 l-7.2 0 l0 3.34 l6.28 0 l0 1.78 l-6.28 0 l0 5.64 l7.02 0 l0 1.76 l-8.82 0 z M92.02000000000001 12.42 l5.5 7.58 l-2.06 0 l-5.44 -7.48 l-2.04 0 l0 7.48 l-1.72 0 l0 -14.24 l4.94 0 c0.9 0 1.74 0.36 2.38 1 s1 1.48 1 2.38 c0 1.58 -1.1 2.9 -2.56 3.28 z M87.98 7.48 l0 3.32 l3.22 0 c0.92 0 1.66 -0.74 1.66 -1.66 s-0.74 -1.66 -1.66 -1.66 l-3.22 0 z M106.00000000000001 20 l0 -14.24 l1.8 0 l0 14.24 l-1.8 0 z M127.50000000000001 20 l-7.62 -11.26 l0 11.26 l-1.8 0 l0 -14.24 l1.96 0 l7.6 11.26 l0 -11.26 l1.8 0 l0 14.24 l-1.94 0 z M145.94000000000003 10.84 l5.92 0 l0 6.3 c-1.42 1.9 -3.66 3.08 -6.02 3.08 c-4.1 0 -7.44 -3.34 -7.44 -7.46 c0 -4.1 3.34 -7.44 7.44 -7.44 c2.02 0 3.9 0.8 5.28 2.2 l-1.32 1.16 c-1.04 -1.04 -2.46 -1.6 -3.96 -1.6 c-3.14 0 -5.68 2.54 -5.68 5.68 c0 3.16 2.54 5.7 5.68 5.7 c1.66 0 3.18 -0.7 4.28 -1.92 l0 -3.94 l-4.18 0 l0 -1.76 z M172.42000000000004 20 l0 -14.24 l1.8 0 l0 14.24 l-1.8 0 z M193.92000000000002 20 l-7.62 -11.26 l0 11.26 l-1.8 0 l0 -14.24 l1.96 0 l7.6 11.26 l0 -11.26 l1.8 0 l0 14.24 l-1.94 0 z M215.12 20 l-7.62 -11.26 l0 11.26 l-1.8 0 l0 -14.24 l1.96 0 l7.6 11.26 l0 -11.26 l1.8 0 l0 14.24 l-1.94 0 z M233.14000000000001 5.32 c4.1 0 7.46 3.34 7.46 7.46 c0 4.1 -3.36 7.42 -7.46 7.42 s-7.44 -3.32 -7.44 -7.42 c0 -4.12 3.34 -7.46 7.44 -7.46 z M233.14000000000001 18.44 c3.12 0 5.64 -2.56 5.64 -5.66 c0 -3.12 -2.52 -5.7 -5.64 -5.7 s-5.64 2.58 -5.64 5.7 c0 3.1 2.52 5.66 5.64 5.66 z M247.12000000000003 5.76 l1.94 0 l4.48 11.66 l4.5 -11.66 l1.92 0 l-5.48 14.24 l-1.86 0 z M275.64000000000004 20 l-1.58 -4.14 l-5.82 0 l-1.58 4.14 l-1.92 0 l5.48 -14.24 l1.86 0 l5.5 14.24 l-1.94 0 z M273.36 14.1 l-2.2 -5.76 l-2.22 5.76 l4.42 0 z M288.76000000000005 20 l0 -12.48 l-3.76 0 l0 -1.76 l9.32 0 l0 1.76 l-3.76 0 l0 12.48 l-1.8 0 z M303.94000000000005 20 l0 -14.24 l1.8 0 l0 14.24 l-1.8 0 z M322.34000000000003 5.32 c4.1 0 7.46 3.34 7.46 7.46 c0 4.1 -3.36 7.42 -7.46 7.42 s-7.44 -3.32 -7.44 -7.42 c0 -4.12 3.34 -7.46 7.44 -7.46 z M322.34000000000003 18.44 c3.12 0 5.64 -2.56 5.64 -5.66 c0 -3.12 -2.52 -5.7 -5.64 -5.7 s-5.64 2.58 -5.64 5.7 c0 3.1 2.52 5.66 5.64 5.66 z M347.9800000000001 20 l-7.62 -11.26 l0 11.26 l-1.8 0 l0 -14.24 l1.96 0 l7.6 11.26 l0 -11.26 l1.8 0 l0 14.24 l-1.94 0 z M359.66 21.32 l-1.06 0 l1.24 -1.32 c-0.46 -0.24 -0.68 -0.8 -0.48 -1.3 c0.16 -0.4 0.54 -0.66 0.98 -0.66 c0.12 0 0.26 0.02 0.38 0.08 c0.26 0.1 0.48 0.3 0.58 0.56 c0.22 0.58 -0.02 0.94 -0.2 1.12 c-0.06 0.08 -1.44 1.52 -1.44 1.52 z M387.48 5.32 c4.1 0 7.46 3.34 7.46 7.46 c0 4.1 -3.36 7.42 -7.46 7.42 s-7.44 -3.32 -7.44 -7.42 c0 -4.12 3.34 -7.46 7.44 -7.46 z M387.48 18.44 c3.12 0 5.64 -2.56 5.64 -5.66 c0 -3.12 -2.52 -5.7 -5.64 -5.7 s-5.64 2.58 -5.64 5.7 c0 3.1 2.52 5.66 5.64 5.66 z M413.12000000000006 20 l-7.62 -11.26 l0 11.26 l-1.8 0 l0 -14.24 l1.96 0 l7.6 11.26 l0 -11.26 l1.8 0 l0 14.24 l-1.94 0 z M425.14000000000004 20 l0 -14.24 l9 0 l0 1.72 l-7.2 0 l0 3.34 l6.28 0 l0 1.78 l-6.28 0 l0 5.64 l7.02 0 l0 1.76 l-8.82 0 z M462.94000000000005 20 l0 -7.42 l-7.3 0 l0 7.42 l-1.8 0 l0 -14.24 l1.8 0 l0 5.08 l7.3 0 l0 -5.08 l1.8 0 l0 14.24 l-1.8 0 z M483.82000000000005 20 l-1.58 -4.14 l-5.82 0 l-1.58 4.14 l-1.92 0 l5.48 -14.24 l1.86 0 l5.5 14.24 l-1.94 0 z M481.54 14.1 l-2.2 -5.76 l-2.22 5.76 l4.42 0 z M500.78000000000003 18.46 c1.78 0 3.44 -0.82 4.54 -2.26 l1.4 1.04 c-1.42 1.9 -3.6 2.98 -5.94 2.98 c-4.12 0 -7.46 -3.34 -7.46 -7.46 c0 -4.1 3.34 -7.44 7.46 -7.44 c2.36 0 4.54 1.1 5.96 3 l-1.42 1.04 c-1.08 -1.46 -2.74 -2.28 -4.54 -2.28 c-3.16 0 -5.7 2.54 -5.7 5.68 c0 3.16 2.54 5.7 5.7 5.7 z M526.22 20 l-5.9 -8.28 l-3.08 2.9 l0 5.38 l-1.78 0 l0 -14.24 l1.78 0 l0 6.46 l6.86 -6.46 l2.56 0 l-4.98 4.7 l6.8 9.54 l-2.26 0 z M546.32 20 l-1.58 -4.14 l-5.82 0 l-1.58 4.14 l-1.92 0 l5.48 -14.24 l1.86 0 l5.5 14.24 l-1.94 0 z M544.0400000000001 14.1 l-2.2 -5.76 l-2.22 5.76 l4.42 0 z M559.44 20 l0 -12.48 l-3.76 0 l0 -1.76 l9.32 0 l0 1.76 l-3.76 0 l0 12.48 l-1.8 0 z M582.6200000000001 20 l0 -7.42 l-7.3 0 l0 7.42 l-1.8 0 l0 -14.24 l1.8 0 l0 5.08 l7.3 0 l0 -5.08 l1.8 0 l0 14.24 l-1.8 0 z M600.32 5.32 c4.1 0 7.46 3.34 7.46 7.46 c0 4.1 -3.36 7.42 -7.46 7.42 s-7.44 -3.32 -7.44 -7.42 c0 -4.12 3.34 -7.46 7.44 -7.46 z M600.32 18.44 c3.12 0 5.64 -2.56 5.64 -5.66 c0 -3.12 -2.52 -5.7 -5.64 -5.7 s-5.64 2.58 -5.64 5.7 c0 3.1 2.52 5.66 5.64 5.66 z M625.96 20 l-7.62 -11.26 l0 11.26 l-1.8 0 l0 -14.24 l1.96 0 l7.6 11.26 l0 -11.26 l1.8 0 l0 14.24 l-1.94 0 z M658.5600000000001 20 l-1.58 -4.14 l-5.82 0 l-1.58 4.14 l-1.92 0 l5.48 -14.24 l1.86 0 l5.5 14.24 l-1.94 0 z M656.2800000000001 14.1 l-2.2 -5.76 l-2.22 5.76 l4.42 0 z M671.6800000000001 20 l0 -12.48 l-3.76 0 l0 -1.76 l9.32 0 l0 1.76 l-3.76 0 l0 12.48 l-1.8 0 z M706.6400000000001 20 l-1.58 -4.14 l-5.82 0 l-1.58 4.14 l-1.92 0 l5.48 -14.24 l1.86 0 l5.5 14.24 l-1.94 0 z M704.3600000000001 14.1 l-2.2 -5.76 l-2.22 5.76 l4.42 0 z M730.8400000000001 20 l0 -12.48 l-3.76 0 l0 -1.76 l9.32 0 l0 1.76 l-3.76 0 l0 12.48 l-1.8 0 z M746.0200000000001 20 l0 -14.24 l1.8 0 l0 14.24 l-1.8 0 z M770.9200000000001 20 l-1.78 0 l0 -11.36 l-4.54 6.2 l-4.52 -6.2 l0 11.36 l-1.78 0 l0 -14.24 l1.88 0 l4.42 6.08 l4.42 -6.08 l1.9 0 l0 14.24 z M780.3000000000001 20 l0 -14.24 l9 0 l0 1.72 l-7.2 0 l0 3.34 l6.28 0 l0 1.78 l-6.28 0 l0 5.64 l7.02 0 l0 1.76 l-8.82 0 z M798.2400000000001 17.72 c0.62 0 1.12 0.52 1.12 1.14 s-0.5 1.14 -1.12 1.14 c-0.64 0 -1.14 -0.52 -1.14 -1.14 s0.5 -1.14 1.14 -1.14 z"/></g>
			</g>
		</svg>
	
